<svg version="1.2" xmlns="http://www.w3.org/2000/svg" viewBox="0 0 16 19" width="16" height="19">
	<title>Footer</title>
	<style>
		.s0 { fill: #ffffff } 
	</style>
	<g id="Footer">
		<path id="-e-icon-pin" fill-rule="evenodd" class="s0" d="m13.3 2.5c-1.4-1.4-3.4-2.2-5.5-2.2-2.1 0-4 0.8-5.5 2.2-1.5 1.5-2.3 3.5-2.3 5.6 0 2.1 0.8 4 2.3 5.5l4.7 5c0.2 0.3 0.5 0.4 0.8 0.4 0.3 0 0.6-0.1 0.9-0.4l4.6-5c1.5-1.5 2.3-3.4 2.3-5.5 0-2.1-0.8-4.1-2.3-5.6zm-1.1 10l-4.4 4.8-4.4-4.8c-1.2-1.2-1.8-2.8-1.8-4.4 0-1.7 0.6-3.3 1.8-4.4 1.2-1.2 2.7-1.9 4.4-1.9 1.7 0 3.2 0.7 4.4 1.9 1.2 1.1 1.9 2.7 1.9 4.4 0 1.6-0.7 3.2-1.9 4.4zm-4.4-7.6c-0.8 0-1.6 0.4-2.2 1-0.6 0.5-0.9 1.3-0.9 2.2 0 1.7 1.4 3.1 3.1 3.1 1.7 0 3.1-1.4 3.1-3.1 0-1.8-1.4-3.2-3.1-3.2zm0 4.7c-0.9 0-1.6-0.7-1.6-1.5 0-0.5 0.2-0.8 0.5-1.1 0.3-0.3 0.7-0.5 1.1-0.5 0.9 0 1.6 0.7 1.6 1.6 0 0.8-0.7 1.5-1.6 1.5z"/>
	</g>
</svg>