<svg version="1.2" xmlns="http://www.w3.org/2000/svg" viewBox="0 0 21 21" width="21" height="21">
	<title>Footer</title>
	<style>
		.s0 { fill: #ffffff } 
	</style>
	<g id="Footer">
		<path id="-e-icon-links" fill-rule="evenodd" class="s0" d="m12.5 11.2c0.5 0.5 1.2 0.8 1.9 0.8 0.7 0 1.4-0.3 1.9-0.8l3.6-3.6c1.1-1.1 1.1-2.8 0-3.8l-2.8-2.8c-1-1-2.7-1-3.7 0l-3.7 3.7c-0.5 0.5-0.7 1.1-0.7 1.8 0 0.8 0.2 1.4 0.7 1.9l0.8 0.8-1 1-0.7-0.8c-1-1-2.8-1-3.8 0l-3.6 3.7c-0.5 0.5-0.8 1.1-0.8 1.8 0 0.7 0.3 1.4 0.8 1.9l2.8 2.8c0.5 0.5 1.1 0.8 1.8 0.8 0.7 0 1.4-0.3 1.9-0.8l3.6-3.7c1.1-1 1.1-2.7 0-3.7l-0.7-0.8 1-1zm-2.3 2.3c0.4 0.3 0.4 0.9 0 1.2l-3.6 3.7c-0.4 0.3-0.9 0.3-1.3 0l-2.8-2.8q-0.2-0.3-0.2-0.6 0-0.4 0.2-0.7l3.7-3.6q0.2-0.3 0.6-0.3 0.4 0 0.6 0.3l0.8 0.7-2 2 1.3 1.3 1.9-2zm0.7-6.3q-0.2-0.2-0.2-0.6 0-0.4 0.2-0.6l3.7-3.7q0.3-0.2 0.6-0.3 0.4 0.1 0.6 0.3l2.8 2.8c0.4 0.3 0.4 0.9 0 1.2l-3.6 3.7c-0.4 0.3-0.9 0.3-1.3 0l-0.7-0.8 1.5-1.6-1.2-1.2-1.6 1.6z"/>
	</g>
</svg>