<svg version="1.2" xmlns="http://www.w3.org/2000/svg" viewBox="0 0 22 23" width="22" height="23">
	<title>Slider</title>
	<style>
		.s0 { fill: #ffffff } 
	</style>
	<g id="Slider">
		<path id="-e-icon-hours" fill-rule="evenodd" class="s0" d="m5 17c-1.6 0-3-1.3-3-3 0-1.6 1.4-3 3-3 1.7 0 3 1.4 3 3 0 1.7-1.3 3-3 3zm0-2c0.6 0 1-0.4 1-1 0-0.5-0.4-1-1-1-0.5 0-1 0.5-1 1 0 0.6 0.5 1 1 1zm-2 3h4c1.7 0 3 1.3 3 3v2h-2v-2c0-0.5-0.4-1-1-1h-4c-0.5 0-1 0.5-1 1v2h-2v-2c0-1.7 1.4-3 3-3zm8 4v-2c5 0 9-4 9-9 0-5-4-9-9-9-5 0-9 4-9 9h-2c0-6.1 4.9-11 11-11 6.1 0 11 4.9 11 11 0 6.1-4.9 11-11 11zm1-18v6.6l3.7 3.7-1.4 1.4-4.3-4.3v-7.4z"/>
	</g>
</svg>