<svg version="1.2" xmlns="http://www.w3.org/2000/svg" viewBox="0 0 15 14" width="15" height="14">
	<title>Menu-top</title>
	<style>
		.s0 { fill: #ffffff } 
	</style>
	<g id="Menu-top">
		<path id="-e-icon-search" fill-rule="evenodd" class="s0" d="m14.1 12.5l-3.1-3.1c0.7-1 1.1-2.2 1.1-3.4 0-3.3-2.7-6-5.9-6-3.2 0-5.9 2.7-5.9 6 0 3.3 2.7 5.9 5.9 5.9 1.3 0 2.6-0.4 3.6-1.3l3.1 3.1q0.2 0.3 0.6 0.3 0.3 0 0.6-0.3c0.3-0.3 0.3-0.9 0-1.2zm-7.9-10.8c2.3 0 4.2 1.9 4.2 4.3 0 2.3-1.9 4.2-4.2 4.2-2.3 0-4.2-1.9-4.2-4.2 0-2.4 1.9-4.3 4.2-4.3z"/>
	</g>
</svg>