<svg version="1.2" xmlns="http://www.w3.org/2000/svg" viewBox="0 0 34 9" width="34" height="9">
	<title>News</title>
	<style>
		.s0 { fill: #723e98 } 
	</style>
	<g id="News">
		<path id="-e-icon-arrow-button-large" class="s0" d="m33.9 4.9q0-0.1 0-0.1 0.1-0.1 0.1-0.3 0-0.2-0.1-0.3 0 0 0 0 0-0.2-0.1-0.3 0 0 0 0l-3-3.6c-0.3-0.4-0.9-0.4-1.3-0.1-0.3 0.2-0.4 0.5-0.4 0.8q0 0.3 0.2 0.6l1.7 1.9h-30c-0.6 0-1 0.5-1 1 0 0.5 0.4 1 1 1h30l-1.7 1.9q-0.2 0.3-0.2 0.6c0 0.3 0.1 0.6 0.4 0.8q0.3 0.2 0.7 0.2 0.4 0 0.6-0.3l3-3.6q0 0 0 0 0.1-0.1 0.1-0.2z"/>
	</g>
</svg>