<svg version="1.2" xmlns="http://www.w3.org/2000/svg" viewBox="0 0 23 21" width="23" height="21">
	<title>Slider</title>
	<style>
		.s0 { fill: #ffffff } 
	</style>
	<g id="Slider">
		<path id="-e-icon-moneypig" fill-rule="evenodd" class="s0" d="m2 15.6l-2-1v-5.6h1.7c0.7-1.4 1.9-2.6 3.3-3.3v-3.8l1.1 0.1c3 0.3 4.2 1.6 4.7 3h4.2c2 0 3.7 0.8 5 2.1v-0.1c0.6 0 1-0.4 1-1h2c0 1.2-0.7 2.3-1.8 2.7 0.5 1 0.8 2.1 0.8 3.3 0 2.3-1.1 4.4-3 5.7v3.3h-6v-2h-1v2h-6v-2.3c-1.7-0.5-3.1-1.6-4-3.1zm0-2.2l1.5 0.7 0.1 0.3c0.7 1.3 2.1 2.3 3.6 2.5l0.8 0.2v1.9h2v-2h5v2h2v-2.4l0.5-0.3c1.5-0.9 2.5-2.5 2.5-4.3 0-2.8-2.2-5-5-5h-6v-0.6c0-0.9-0.3-1.8-2-2.2v3.8h-2c-0.8 0.6-1.4 1.4-1.7 2.3l-0.2 0.7h-1.1zm12-13.4c1.1 0 2 0.9 2 2 0 1.1-0.9 2-2 2-1.1 0-2-0.9-2-2 0-1.1 0.9-2 2-2z"/>
	</g>
</svg>