<svg version="1.2" xmlns="http://www.w3.org/2000/svg" viewBox="0 0 226 42" width="226" height="42">
	<title>Menu-top</title>
	<style>
		.s0 { fill: #ffffff } 
	</style>
	<g id="Menu-top">
		<path id="-e-logo" fill-rule="evenodd" class="s0" d="m26.6 38.9h15c0.4 0 0.7-0.1 1-0.4l13.1-16.7c0.3-0.5 0.3-1.1 0-1.6l-13.1-16.7c-0.3-0.3-0.6-0.5-1-0.5h-5.4c-0.8 0-1.5-0.7-1.5-1.5 0-0.8 0.7-1.5 1.5-1.5h5.4c1.3 0 2.5 0.6 3.3 1.6l13.1 16.7c1.3 1.6 1.3 3.8 0 5.4l-13.1 16.6c-0.8 1.1-2 1.7-3.3 1.7h-15c-0.8 0-1.5-0.7-1.5-1.5 0-0.9 0.7-1.6 1.5-1.6zm-13.3-6.4h24.2l9-11.5-9-11.5h-10.2c-0.8 0-1.5-0.7-1.5-1.5 0-0.9 0.7-1.6 1.5-1.6h10.7c0.6 0 1.2 0.3 1.5 0.8l9.9 12.6c0.6 0.7 0.6 1.7 0 2.4l-9.9 12.6c-0.3 0.4-0.9 0.7-1.5 0.7h-24.7c-0.9 0-1.6-0.7-1.6-1.5 0-0.8 0.7-1.5 1.6-1.5zm-9.9-9.3c1.3 0 2.4 0.8 3 1.9h27l3.2-4.1-3.2-4.2h-12.9c-0.6 1.2-1.7 1.9-3 1.9-1.9 0-3.4-1.5-3.4-3.4 0-1.9 1.5-3.4 3.4-3.4 1.3 0 2.4 0.8 3 1.9h13.6c0.5 0 0.9 0.2 1.2 0.6l4.4 5.6c0.5 0.6 0.5 1.4 0 2l-4.4 5.5c-0.3 0.4-0.7 0.7-1.2 0.7h-27.7c-0.6 1.1-1.7 1.8-3 1.8-1.9 0-3.4-1.5-3.4-3.4 0-1.8 1.5-3.4 3.4-3.4zm79.6-2.9l9.3 11.2h-6.3l-7.4-8.8h-5.2v8.8h-5.3v-21.2h5.3v8h5.2l7.3-8h6.6zm143.2 11.2h-6.5l-12-15.2-11.7 15.2h-9.5l-7.4-8.7h-5.2v8.7h-5.3v-16.8l-9 8.4v8.4h-5.2v-8.4l-9-8.4h-18.5c-1.6 0-1.6 0.7-1.6 1.1v1.2c0 0.4 0 1 1.6 1h11.5q1.8 0 3.1 0.4 1.3 0.4 2.2 1.2 0.9 0.7 1.3 1.8 0.4 1 0.4 2.2v2.4q0 1.2-0.4 2.2-0.4 1.1-1.3 1.8-0.9 0.8-2.2 1.2-1.3 0.3-3.1 0.3h-17.7v-4.4h17.7c1.7 0 1.7-0.7 1.7-1.1v-2.5c0-0.3 0-1-1.7-1h-11.5q-1.8 0-3-0.4-1.3-0.4-2.2-1.1-0.9-0.8-1.3-1.8-0.4-1-0.4-2.2v-1.2q0-1.2 0.4-2.2 0.4-1 1.3-1.8 0.8-0.7 2.2-1.1 1.2-0.4 3-0.4h20.7l9.4 8.7 9.3-8.7h7.6v8h5.1l7.4-8h6.5l-9.4 10 7.7 9.4 14.8-19.4h3.5zm-108.2-18q0.4 1 0.4 2.3v10.1q0 1.3-0.4 2.3-0.4 1-1.3 1.8-0.8 0.7-2.2 1.1-1.2 0.4-3 0.4h-12.9q-1.8 0-3.1-0.4-1.3-0.4-2.2-1.1-0.9-0.8-1.3-1.8-0.4-1-0.4-2.3v-10.1q0-1.3 0.4-2.3 0.4-1 1.3-1.8 0.9-0.7 2.2-1.1 1.3-0.4 3.1-0.4h12.9q1.8 0 3 0.4 1.4 0.4 2.2 1.1 0.9 0.8 1.3 1.8zm-21.1 12.5c0 0.3 0 1 1.7 1h12.9c1.7 0 1.7-0.7 1.7-1v-10.3c0-0.3 0-1-1.7-1h-12.9c-1.7 0-1.7 0.7-1.7 1z"/>
	</g>
</svg>